<svg id="visual" viewBox="0 0 900 600" width="900" height="600" xmlns="http://www.w3.org/2000/svg" xmlns:xlink="http://www.w3.org/1999/xlink" version="1.1"><path d="M0 399L21.5 408.8C43 418.7 86 438.3 128.8 441.2C171.7 444 214.3 430 257.2 424.5C300 419 343 422 385.8 424.7C428.7 427.3 471.3 429.7 514.2 431.5C557 433.3 600 434.7 642.8 432C685.7 429.3 728.3 422.7 771.2 414.5C814 406.3 857 396.7 878.5 391.8L900 387L900 601L878.5 601C857 601 814 601 771.2 601C728.3 601 685.7 601 642.8 601C600 601 557 601 514.2 601C471.3 601 428.7 601 385.8 601C343 601 300 601 257.2 601C214.3 601 171.7 601 128.8 601C86 601 43 601 21.5 601L0 601Z" fill="#0066ff"></path><path d="M0 429L21.5 427.8C43 426.7 86 424.3 128.8 425.8C171.7 427.3 214.3 432.7 257.2 442.8C300 453 343 468 385.8 463.2C428.7 458.3 471.3 433.7 514.2 421.7C557 409.7 600 410.3 642.8 414C685.7 417.7 728.3 424.3 771.2 423.3C814 422.3 857 413.7 878.5 409.3L900 405L900 601L878.5 601C857 601 814 601 771.2 601C728.3 601 685.7 601 642.8 601C600 601 557 601 514.2 601C471.3 601 428.7 601 385.8 601C343 601 300 601 257.2 601C214.3 601 171.7 601 128.8 601C86 601 43 601 21.5 601L0 601Z" fill="#007aff"></path><path d="M0 436L21.5 439.5C43 443 86 450 128.8 456C171.7 462 214.3 467 257.2 467.7C300 468.3 343 464.7 385.8 468.5C428.7 472.3 471.3 483.7 514.2 491C557 498.3 600 501.7 642.8 493C685.7 484.3 728.3 463.7 771.2 457.3C814 451 857 459 878.5 463L900 467L900 601L878.5 601C857 601 814 601 771.2 601C728.3 601 685.7 601 642.8 601C600 601 557 601 514.2 601C471.3 601 428.7 601 385.8 601C343 601 300 601 257.2 601C214.3 601 171.7 601 128.8 601C86 601 43 601 21.5 601L0 601Z" fill="#008cff"></path><path d="M0 497L21.5 498.8C43 500.7 86 504.3 128.8 506.2C171.7 508 214.3 508 257.2 504.8C300 501.7 343 495.3 385.8 501.3C428.7 507.3 471.3 525.7 514.2 531.8C557 538 600 532 642.8 522.3C685.7 512.7 728.3 499.3 771.2 499.2C814 499 857 512 878.5 518.5L900 525L900 601L878.5 601C857 601 814 601 771.2 601C728.3 601 685.7 601 642.8 601C600 601 557 601 514.2 601C471.3 601 428.7 601 385.8 601C343 601 300 601 257.2 601C214.3 601 171.7 601 128.8 601C86 601 43 601 21.5 601L0 601Z" fill="#2b9dfc"></path><path d="M0 576L21.5 573.3C43 570.7 86 565.3 128.8 560.5C171.7 555.7 214.3 551.3 257.2 552.7C300 554 343 561 385.8 558.5C428.7 556 471.3 544 514.2 539.5C557 535 600 538 642.8 540C685.7 542 728.3 543 771.2 545C814 547 857 550 878.5 551.5L900 553L900 601L878.5 601C857 601 814 601 771.2 601C728.3 601 685.7 601 642.8 601C600 601 557 601 514.2 601C471.3 601 428.7 601 385.8 601C343 601 300 601 257.2 601C214.3 601 171.7 601 128.8 601C86 601 43 601 21.5 601L0 601Z" fill="#4facf7"></path></svg>